<?xml version="1.0" standalone="no"?>
<!DOCTYPE svg PUBLIC "-//W3C//DTD SVG 20010904//EN"
 "http://www.w3.org/TR/2001/REC-SVG-20010904/DTD/svg10.dtd">
<svg version="1.0" xmlns="http://www.w3.org/2000/svg"
 width="1600.000000pt" height="1600.000000pt" viewBox="0 0 1600.000000 1600.000000"
 preserveAspectRatio="xMidYMid meet">
<metadata>
Created by potrace 1.14, written by Peter Selinger 2001-2017
</metadata>
<g transform="translate(0.000000,1600.000000) scale(0.100000,-0.100000)"
fill="#000000" stroke="none">
<path d="M7779 14720 c-15 -4 -47 -10 -73 -13 -77 -10 -142 -68 -140 -127 1
-41 13 -72 24 -65 4 3 10 -1 13 -8 4 -10 -11 -18 -46 -27 -29 -7 -59 -17 -67
-21 -8 -5 -64 -25 -125 -45 -60 -20 -114 -40 -120 -44 -10 -6 -132 -53 -147
-56 -5 -1 -10 -3 -13 -4 -3 -1 -8 -4 -12 -5 -5 -1 -24 -8 -43 -16 -19 -7 -38
-12 -42 -11 -5 1 -8 -2 -8 -6 0 -5 -26 -17 -57 -27 -32 -11 -62 -24 -68 -30
-5 -6 -66 -39 -135 -74 -69 -35 -151 -81 -184 -102 -32 -22 -59 -39 -61 -39
-12 0 -215 -191 -215 -202 0 -5 -9 -19 -20 -30 -19 -21 -62 -101 -61 -113 1
-3 -5 -18 -14 -35 -8 -16 -17 -44 -19 -62 -3 -18 -5 -33 -6 -33 -1 0 -3 -18
-6 -39 -2 -22 -11 -48 -21 -58 -15 -17 -185 -118 -197 -118 -3 0 -29 -14 -58
-31 -29 -17 -57 -32 -63 -34 -5 -1 -17 -4 -25 -8 -8 -3 -40 -13 -70 -22 -30
-9 -67 -25 -82 -36 -15 -10 -30 -19 -33 -19 -9 0 -131 -94 -133 -102 -1 -5 -2
-16 -2 -25 0 -10 -19 -30 -43 -45 -23 -15 -51 -34 -62 -43 -18 -14 -127 -92
-178 -127 -55 -38 -153 -111 -157 -117 -3 -4 -21 -18 -40 -31 -41 -28 -208
-157 -232 -179 -9 -9 -31 -27 -49 -41 -19 -14 -47 -37 -63 -52 -16 -16 -32
-28 -35 -28 -3 0 -24 -17 -47 -37 -35 -33 -100 -90 -184 -163 -180 -155 -514
-489 -715 -714 -38 -44 -77 -86 -85 -95 -39 -43 -214 -256 -275 -336 -38 -49
-73 -91 -77 -93 -4 -2 -8 -10 -8 -17 0 -7 -4 -15 -8 -17 -7 -2 -240 -324 -267
-367 -9 -15 -9 -196 0 -286 3 -27 8 -117 11 -200 4 -82 8 -181 9 -220 2 -38 4
-70 5 -70 1 0 3 -27 4 -60 3 -55 8 -123 22 -290 8 -96 13 -156 18 -220 2 -33
10 -107 16 -164 11 -103 16 -151 24 -226 2 -22 9 -85 16 -140 17 -138 18 -142
24 -214 4 -35 8 -67 10 -70 3 -3 7 -34 11 -68 3 -34 8 -72 10 -85 3 -13 7 -45
10 -73 3 -27 10 -75 15 -105 9 -52 18 -113 25 -172 2 -15 9 -53 14 -85 6 -32
13 -74 16 -93 3 -19 8 -55 12 -80 13 -85 6 -125 -46 -273 -50 -142 -52 -152
-47 -225 3 -43 8 -88 10 -102 22 -146 88 -389 132 -487 8 -17 14 -34 14 -37 0
-11 118 -244 138 -274 11 -15 36 -54 57 -87 21 -33 42 -62 46 -65 4 -3 27 -57
51 -120 23 -63 48 -122 55 -130 58 -73 90 -111 124 -148 21 -24 39 -47 39 -52
0 -4 16 -17 35 -29 19 -11 34 -26 33 -33 -2 -7 2 -12 7 -13 6 0 27 -8 49 -19
21 -10 44 -19 50 -20 6 -1 25 -9 41 -17 27 -14 472 -15 4010 -14 2189 1 3992
5 4008 9 15 5 27 12 27 18 0 5 6 8 13 7 16 -3 83 26 91 40 4 6 12 9 17 6 5 -4
9 1 9 9 0 9 4 16 9 16 8 0 45 34 86 80 6 6 30 21 55 33 38 19 47 29 61 71 9
26 20 51 25 55 12 8 57 120 78 194 9 31 20 57 24 57 4 0 20 21 37 48 16 26 32
49 35 52 4 3 10 12 13 20 4 8 17 31 28 50 42 69 118 221 138 277 12 32 26 67
31 78 16 36 58 179 64 219 4 22 11 45 16 51 5 7 7 14 4 18 -3 3 -1 21 5 39 14
45 32 192 31 258 0 23 -40 158 -60 205 -5 11 -14 38 -21 60 -7 22 -17 45 -22
52 -8 11 -5 65 8 133 3 14 7 39 9 55 3 17 12 71 21 122 8 50 17 109 19 130 3
21 5 38 6 38 1 0 3 16 6 35 2 19 9 69 15 110 6 41 12 89 14 105 14 103 26 196
30 230 3 22 8 58 11 80 7 46 12 90 19 155 2 25 7 70 10 100 8 69 11 100 19
175 3 33 8 80 11 105 8 76 17 173 20 215 4 72 16 209 21 259 3 27 7 84 9 125
2 42 6 110 9 152 3 41 8 129 11 195 3 65 8 157 11 204 14 235 8 336 -24 360
-15 11 -62 79 -62 89 0 6 -4 11 -8 11 -4 0 -16 13 -25 30 -10 16 -47 68 -82
115 -36 47 -65 88 -65 90 0 4 -19 29 -45 59 -5 6 -23 29 -39 51 -17 22 -38 49
-48 60 -9 11 -39 47 -65 80 -26 33 -55 69 -63 79 -8 10 -35 42 -60 70 -24 28
-51 59 -60 69 -137 163 -475 510 -674 692 -193 177 -209 191 -396 345 -74 62
-144 120 -155 129 -11 9 -36 27 -55 41 -19 13 -37 27 -40 30 -3 3 -34 28 -70
55 -36 27 -69 53 -75 57 -31 25 -149 110 -205 149 -36 24 -66 47 -68 52 -2 4
-10 7 -18 7 -8 0 -14 3 -14 8 0 4 -25 23 -55 42 -30 19 -55 42 -55 52 0 24
-11 48 -21 48 -5 0 -23 13 -40 30 -17 16 -51 39 -75 51 -24 11 -44 24 -44 29
0 4 -37 18 -82 30 -46 12 -96 30 -113 40 -16 10 -61 35 -100 55 -191 102 -206
114 -207 164 -1 18 -5 34 -10 37 -4 3 -6 10 -2 15 3 5 -3 33 -12 62 -10 28
-17 55 -16 60 1 4 -2 7 -8 7 -5 0 -10 8 -10 18 0 30 -77 136 -144 199 -88 81
-146 131 -146 124 0 -3 -4 -1 -8 5 -11 15 -112 74 -249 144 -68 35 -123 67
-123 71 0 5 -10 9 -23 9 -13 0 -27 4 -32 8 -10 9 -171 75 -190 78 -13 2 -111
41 -153 60 -18 8 -40 17 -50 19 -17 4 -152 50 -182 62 -21 9 -20 8 -72 23
l-48 14 22 23 c14 15 22 37 23 64 1 36 -3 45 -43 80 -25 21 -51 39 -58 39 -8
0 -17 1 -21 2 -98 23 -152 27 -318 27 -104 0 -202 -4 -216 -9z"/>
</g>
</svg>
